<mxfile host="app.diagrams.net" modified="2021-11-09T17:12:30.865Z" agent="5.0 (Windows NT 10.0; Win64; x64) AppleWebKit/537.36 (KHTML, like Gecko) Chrome/95.0.4638.69 Safari/537.36" etag="1a3VCEmovooeLo_6Uvfo" version="15.7.0" type="github">
  <diagram id="_y9NGR9hqTzERYzAmLQY" name="Page-1">
    <mxGraphModel dx="1038" dy="624" grid="1" gridSize="10" guides="1" tooltips="1" connect="1" arrows="1" fold="1" page="1" pageScale="1" pageWidth="827" pageHeight="1169" math="0" shadow="0">
      <root>
        <mxCell id="0" />
        <mxCell id="1" parent="0" />
        <mxCell id="Rvm-X7QAsiA7LAmgjYLi-1" value="Shop" style="swimlane;fontStyle=1;align=center;verticalAlign=top;childLayout=stackLayout;horizontal=1;startSize=26;horizontalStack=0;resizeParent=1;resizeParentMax=0;resizeLast=0;collapsible=1;marginBottom=0;fillColor=default;strokeColor=default;fontColor=default;" parent="1" vertex="1" collapsed="1">
          <mxGeometry x="320" y="40" width="60" height="26" as="geometry">
            <mxRectangle x="320" y="40" width="160" height="134" as="alternateBounds" />
          </mxGeometry>
        </mxCell>
        <mxCell id="Rvm-X7QAsiA7LAmgjYLi-2" value="- moderator: Moderator&#xa;- administrator: Administrator&#xa;- storage: Storage&#xa;- clients: List&lt;Client&gt;&#xa;" style="text;strokeColor=none;fillColor=none;align=left;verticalAlign=top;spacingLeft=4;spacingRight=4;overflow=hidden;rotatable=0;points=[[0,0.5],[1,0.5]];portConstraint=eastwest;" parent="Rvm-X7QAsiA7LAmgjYLi-1" vertex="1">
          <mxGeometry y="26" width="60" height="74" as="geometry" />
        </mxCell>
        <mxCell id="Rvm-X7QAsiA7LAmgjYLi-3" value="" style="line;strokeWidth=1;fillColor=none;align=left;verticalAlign=middle;spacingTop=-1;spacingLeft=3;spacingRight=3;rotatable=0;labelPosition=right;points=[];portConstraint=eastwest;" parent="Rvm-X7QAsiA7LAmgjYLi-1" vertex="1">
          <mxGeometry y="100" width="60" height="8" as="geometry" />
        </mxCell>
        <mxCell id="Rvm-X7QAsiA7LAmgjYLi-4" value="+ method(type): type" style="text;strokeColor=none;fillColor=none;align=left;verticalAlign=top;spacingLeft=4;spacingRight=4;overflow=hidden;rotatable=0;points=[[0,0.5],[1,0.5]];portConstraint=eastwest;" parent="Rvm-X7QAsiA7LAmgjYLi-1" vertex="1">
          <mxGeometry y="108" width="60" height="26" as="geometry" />
        </mxCell>
        <mxCell id="Rvm-X7QAsiA7LAmgjYLi-41" value="First_client" style="swimlane;fontStyle=1;align=center;verticalAlign=top;childLayout=stackLayout;horizontal=1;startSize=26;horizontalStack=0;resizeParent=1;resizeParentMax=0;resizeLast=0;collapsible=1;marginBottom=0;fontColor=default;strokeColor=default;fillColor=default;" parent="1" vertex="1">
          <mxGeometry x="370" y="226" width="160" height="86" as="geometry" />
        </mxCell>
        <mxCell id="Rvm-X7QAsiA7LAmgjYLi-42" value="- firstDiscount: double" style="text;strokeColor=none;fillColor=none;align=left;verticalAlign=top;spacingLeft=4;spacingRight=4;overflow=hidden;rotatable=0;points=[[0,0.5],[1,0.5]];portConstraint=eastwest;fontColor=default;" parent="Rvm-X7QAsiA7LAmgjYLi-41" vertex="1">
          <mxGeometry y="26" width="160" height="26" as="geometry" />
        </mxCell>
        <mxCell id="Rvm-X7QAsiA7LAmgjYLi-43" value="" style="line;strokeWidth=1;fillColor=none;align=left;verticalAlign=middle;spacingTop=-1;spacingLeft=3;spacingRight=3;rotatable=0;labelPosition=right;points=[];portConstraint=eastwest;fontColor=default;" parent="Rvm-X7QAsiA7LAmgjYLi-41" vertex="1">
          <mxGeometry y="52" width="160" height="8" as="geometry" />
        </mxCell>
        <mxCell id="Rvm-X7QAsiA7LAmgjYLi-44" value="+ UseDiscount()" style="text;strokeColor=none;fillColor=none;align=left;verticalAlign=top;spacingLeft=4;spacingRight=4;overflow=hidden;rotatable=0;points=[[0,0.5],[1,0.5]];portConstraint=eastwest;fontColor=default;" parent="Rvm-X7QAsiA7LAmgjYLi-41" vertex="1">
          <mxGeometry y="60" width="160" height="26" as="geometry" />
        </mxCell>
        <mxCell id="Rvm-X7QAsiA7LAmgjYLi-45" value="VIP_Client" style="swimlane;fontStyle=1;align=center;verticalAlign=top;childLayout=stackLayout;horizontal=1;startSize=26;horizontalStack=0;resizeParent=1;resizeParentMax=0;resizeLast=0;collapsible=1;marginBottom=0;fontColor=default;strokeColor=default;fillColor=default;" parent="1" vertex="1">
          <mxGeometry x="650" y="310" width="160" height="86" as="geometry" />
        </mxCell>
        <mxCell id="Rvm-X7QAsiA7LAmgjYLi-46" value="- VIPDiscount: double" style="text;strokeColor=none;fillColor=none;align=left;verticalAlign=top;spacingLeft=4;spacingRight=4;overflow=hidden;rotatable=0;points=[[0,0.5],[1,0.5]];portConstraint=eastwest;fontColor=default;" parent="Rvm-X7QAsiA7LAmgjYLi-45" vertex="1">
          <mxGeometry y="26" width="160" height="26" as="geometry" />
        </mxCell>
        <mxCell id="Rvm-X7QAsiA7LAmgjYLi-47" value="" style="line;strokeWidth=1;fillColor=none;align=left;verticalAlign=middle;spacingTop=-1;spacingLeft=3;spacingRight=3;rotatable=0;labelPosition=right;points=[];portConstraint=eastwest;fontColor=default;" parent="Rvm-X7QAsiA7LAmgjYLi-45" vertex="1">
          <mxGeometry y="52" width="160" height="8" as="geometry" />
        </mxCell>
        <mxCell id="Rvm-X7QAsiA7LAmgjYLi-48" value="+ method(type): type" style="text;strokeColor=none;fillColor=none;align=left;verticalAlign=top;spacingLeft=4;spacingRight=4;overflow=hidden;rotatable=0;points=[[0,0.5],[1,0.5]];portConstraint=eastwest;fontColor=default;" parent="Rvm-X7QAsiA7LAmgjYLi-45" vertex="1">
          <mxGeometry y="60" width="160" height="26" as="geometry" />
        </mxCell>
        <mxCell id="Rvm-X7QAsiA7LAmgjYLi-49" value="Client" style="swimlane;fontStyle=1;align=center;verticalAlign=top;childLayout=stackLayout;horizontal=1;startSize=26;horizontalStack=0;resizeParent=1;resizeParentMax=0;resizeLast=0;collapsible=1;marginBottom=0;fontColor=default;strokeColor=default;fillColor=default;" parent="1" vertex="1">
          <mxGeometry x="570" y="130" width="160" height="140" as="geometry" />
        </mxCell>
        <mxCell id="Rvm-X7QAsiA7LAmgjYLi-50" value="+ basket: Basket" style="text;strokeColor=none;fillColor=none;align=left;verticalAlign=top;spacingLeft=4;spacingRight=4;overflow=hidden;rotatable=0;points=[[0,0.5],[1,0.5]];portConstraint=eastwest;fontColor=default;" parent="Rvm-X7QAsiA7LAmgjYLi-49" vertex="1">
          <mxGeometry y="26" width="160" height="44" as="geometry" />
        </mxCell>
        <mxCell id="Rvm-X7QAsiA7LAmgjYLi-51" value="" style="line;strokeWidth=1;fillColor=none;align=left;verticalAlign=middle;spacingTop=-1;spacingLeft=3;spacingRight=3;rotatable=0;labelPosition=right;points=[];portConstraint=eastwest;fontColor=default;" parent="Rvm-X7QAsiA7LAmgjYLi-49" vertex="1">
          <mxGeometry y="70" width="160" height="8" as="geometry" />
        </mxCell>
        <mxCell id="Rvm-X7QAsiA7LAmgjYLi-52" value="+ AddToBasket(Product)&#xa;+ToOrder()" style="text;strokeColor=none;fillColor=none;align=left;verticalAlign=top;spacingLeft=4;spacingRight=4;overflow=hidden;rotatable=0;points=[[0,0.5],[1,0.5]];portConstraint=eastwest;fontColor=default;" parent="Rvm-X7QAsiA7LAmgjYLi-49" vertex="1">
          <mxGeometry y="78" width="160" height="62" as="geometry" />
        </mxCell>
        <mxCell id="Rvm-X7QAsiA7LAmgjYLi-53" value="Moderator" style="swimlane;fontStyle=1;align=center;verticalAlign=top;childLayout=stackLayout;horizontal=1;startSize=26;horizontalStack=0;resizeParent=1;resizeParentMax=0;resizeLast=0;collapsible=1;marginBottom=0;fontColor=default;strokeColor=default;fillColor=default;" parent="1" vertex="1">
          <mxGeometry x="370" y="440" width="160" height="86" as="geometry" />
        </mxCell>
        <mxCell id="Rvm-X7QAsiA7LAmgjYLi-54" value="+ field: type" style="text;strokeColor=none;fillColor=none;align=left;verticalAlign=top;spacingLeft=4;spacingRight=4;overflow=hidden;rotatable=0;points=[[0,0.5],[1,0.5]];portConstraint=eastwest;fontColor=default;" parent="Rvm-X7QAsiA7LAmgjYLi-53" vertex="1">
          <mxGeometry y="26" width="160" height="26" as="geometry" />
        </mxCell>
        <mxCell id="Rvm-X7QAsiA7LAmgjYLi-55" value="" style="line;strokeWidth=1;fillColor=none;align=left;verticalAlign=middle;spacingTop=-1;spacingLeft=3;spacingRight=3;rotatable=0;labelPosition=right;points=[];portConstraint=eastwest;fontColor=default;" parent="Rvm-X7QAsiA7LAmgjYLi-53" vertex="1">
          <mxGeometry y="52" width="160" height="8" as="geometry" />
        </mxCell>
        <mxCell id="Rvm-X7QAsiA7LAmgjYLi-56" value="+ method(type): type" style="text;strokeColor=none;fillColor=none;align=left;verticalAlign=top;spacingLeft=4;spacingRight=4;overflow=hidden;rotatable=0;points=[[0,0.5],[1,0.5]];portConstraint=eastwest;fontColor=default;" parent="Rvm-X7QAsiA7LAmgjYLi-53" vertex="1">
          <mxGeometry y="60" width="160" height="26" as="geometry" />
        </mxCell>
        <mxCell id="Rvm-X7QAsiA7LAmgjYLi-57" value="Administrartor" style="swimlane;fontStyle=1;align=center;verticalAlign=top;childLayout=stackLayout;horizontal=1;startSize=26;horizontalStack=0;resizeParent=1;resizeParentMax=0;resizeLast=0;collapsible=1;marginBottom=0;fontColor=default;strokeColor=default;fillColor=default;" parent="1" vertex="1">
          <mxGeometry x="370" y="320" width="160" height="86" as="geometry" />
        </mxCell>
        <mxCell id="Rvm-X7QAsiA7LAmgjYLi-58" value="+ field: type" style="text;strokeColor=none;fillColor=none;align=left;verticalAlign=top;spacingLeft=4;spacingRight=4;overflow=hidden;rotatable=0;points=[[0,0.5],[1,0.5]];portConstraint=eastwest;fontColor=default;" parent="Rvm-X7QAsiA7LAmgjYLi-57" vertex="1">
          <mxGeometry y="26" width="160" height="26" as="geometry" />
        </mxCell>
        <mxCell id="Rvm-X7QAsiA7LAmgjYLi-59" value="" style="line;strokeWidth=1;fillColor=none;align=left;verticalAlign=middle;spacingTop=-1;spacingLeft=3;spacingRight=3;rotatable=0;labelPosition=right;points=[];portConstraint=eastwest;fontColor=default;" parent="Rvm-X7QAsiA7LAmgjYLi-57" vertex="1">
          <mxGeometry y="52" width="160" height="8" as="geometry" />
        </mxCell>
        <mxCell id="Rvm-X7QAsiA7LAmgjYLi-60" value="+ method(type): type" style="text;strokeColor=none;fillColor=none;align=left;verticalAlign=top;spacingLeft=4;spacingRight=4;overflow=hidden;rotatable=0;points=[[0,0.5],[1,0.5]];portConstraint=eastwest;fontColor=default;" parent="Rvm-X7QAsiA7LAmgjYLi-57" vertex="1">
          <mxGeometry y="60" width="160" height="26" as="geometry" />
        </mxCell>
        <mxCell id="Rvm-X7QAsiA7LAmgjYLi-69" value="Product" style="swimlane;fontStyle=1;align=center;verticalAlign=top;childLayout=stackLayout;horizontal=1;startSize=26;horizontalStack=0;resizeParent=1;resizeParentMax=0;resizeLast=0;collapsible=1;marginBottom=0;fontColor=default;strokeColor=default;fillColor=default;" parent="1" vertex="1">
          <mxGeometry x="100" y="340" width="180" height="104" as="geometry" />
        </mxCell>
        <mxCell id="Rvm-X7QAsiA7LAmgjYLi-70" value="- name: String&#xa;- price: double&#xa;- amount: int" style="text;strokeColor=none;fillColor=none;align=left;verticalAlign=top;spacingLeft=4;spacingRight=4;overflow=hidden;rotatable=0;points=[[0,0.5],[1,0.5]];portConstraint=eastwest;fontColor=default;" parent="Rvm-X7QAsiA7LAmgjYLi-69" vertex="1">
          <mxGeometry y="26" width="180" height="44" as="geometry" />
        </mxCell>
        <mxCell id="Rvm-X7QAsiA7LAmgjYLi-71" value="" style="line;strokeWidth=1;fillColor=none;align=left;verticalAlign=middle;spacingTop=-1;spacingLeft=3;spacingRight=3;rotatable=0;labelPosition=right;points=[];portConstraint=eastwest;fontColor=default;" parent="Rvm-X7QAsiA7LAmgjYLi-69" vertex="1">
          <mxGeometry y="70" width="180" height="8" as="geometry" />
        </mxCell>
        <mxCell id="Rvm-X7QAsiA7LAmgjYLi-72" value="+ method(type): type" style="text;strokeColor=none;fillColor=none;align=left;verticalAlign=top;spacingLeft=4;spacingRight=4;overflow=hidden;rotatable=0;points=[[0,0.5],[1,0.5]];portConstraint=eastwest;fontColor=default;" parent="Rvm-X7QAsiA7LAmgjYLi-69" vertex="1">
          <mxGeometry y="78" width="180" height="26" as="geometry" />
        </mxCell>
        <mxCell id="Rvm-X7QAsiA7LAmgjYLi-73" value="Storage" style="swimlane;fontStyle=1;align=center;verticalAlign=top;childLayout=stackLayout;horizontal=1;startSize=26;horizontalStack=0;resizeParent=1;resizeParentMax=0;resizeLast=0;collapsible=1;marginBottom=0;fontColor=default;strokeColor=default;fillColor=default;" parent="1" vertex="1">
          <mxGeometry x="60" y="140" width="170" height="86" as="geometry" />
        </mxCell>
        <mxCell id="Rvm-X7QAsiA7LAmgjYLi-74" value="- products: List&lt;Product&gt;" style="text;strokeColor=none;fillColor=none;align=left;verticalAlign=top;spacingLeft=4;spacingRight=4;overflow=hidden;rotatable=0;points=[[0,0.5],[1,0.5]];portConstraint=eastwest;fontColor=default;" parent="Rvm-X7QAsiA7LAmgjYLi-73" vertex="1">
          <mxGeometry y="26" width="170" height="26" as="geometry" />
        </mxCell>
        <mxCell id="Rvm-X7QAsiA7LAmgjYLi-75" value="" style="line;strokeWidth=1;fillColor=none;align=left;verticalAlign=middle;spacingTop=-1;spacingLeft=3;spacingRight=3;rotatable=0;labelPosition=right;points=[];portConstraint=eastwest;fontColor=default;" parent="Rvm-X7QAsiA7LAmgjYLi-73" vertex="1">
          <mxGeometry y="52" width="170" height="8" as="geometry" />
        </mxCell>
        <mxCell id="Rvm-X7QAsiA7LAmgjYLi-76" value="+ ShowProduct()" style="text;strokeColor=none;fillColor=none;align=left;verticalAlign=top;spacingLeft=4;spacingRight=4;overflow=hidden;rotatable=0;points=[[0,0.5],[1,0.5]];portConstraint=eastwest;fontColor=default;" parent="Rvm-X7QAsiA7LAmgjYLi-73" vertex="1">
          <mxGeometry y="60" width="170" height="26" as="geometry" />
        </mxCell>
        <mxCell id="sxBqH1Sp_fp7WQGJbc2a-1" value="Basket" style="swimlane;fontStyle=1;align=center;verticalAlign=top;childLayout=stackLayout;horizontal=1;startSize=26;horizontalStack=0;resizeParent=1;resizeParentMax=0;resizeLast=0;collapsible=1;marginBottom=0;fontColor=default;strokeColor=default;fillColor=default;" vertex="1" parent="1">
          <mxGeometry x="620" y="480" width="160" height="114" as="geometry" />
        </mxCell>
        <mxCell id="sxBqH1Sp_fp7WQGJbc2a-2" value="+ products: List&lt;Products&gt;&#xa;+ totalPrice: double " style="text;strokeColor=none;fillColor=none;align=left;verticalAlign=top;spacingLeft=4;spacingRight=4;overflow=hidden;rotatable=0;points=[[0,0.5],[1,0.5]];portConstraint=eastwest;fontColor=default;" vertex="1" parent="sxBqH1Sp_fp7WQGJbc2a-1">
          <mxGeometry y="26" width="160" height="54" as="geometry" />
        </mxCell>
        <mxCell id="sxBqH1Sp_fp7WQGJbc2a-3" value="" style="line;strokeWidth=1;fillColor=none;align=left;verticalAlign=middle;spacingTop=-1;spacingLeft=3;spacingRight=3;rotatable=0;labelPosition=right;points=[];portConstraint=eastwest;fontColor=default;" vertex="1" parent="sxBqH1Sp_fp7WQGJbc2a-1">
          <mxGeometry y="80" width="160" height="8" as="geometry" />
        </mxCell>
        <mxCell id="sxBqH1Sp_fp7WQGJbc2a-4" value="+ method(type): type" style="text;strokeColor=none;fillColor=none;align=left;verticalAlign=top;spacingLeft=4;spacingRight=4;overflow=hidden;rotatable=0;points=[[0,0.5],[1,0.5]];portConstraint=eastwest;fontColor=default;" vertex="1" parent="sxBqH1Sp_fp7WQGJbc2a-1">
          <mxGeometry y="88" width="160" height="26" as="geometry" />
        </mxCell>
      </root>
    </mxGraphModel>
  </diagram>
</mxfile>
